<svg xmlns="http://www.w3.org/2000/svg" width="24" height="24" viewBox="0 0 24 24">
  <g id="favicon" transform="translate(-736 -688)">
    <rect id="Rectangle_9" data-name="Rectangle 9" width="24" height="24" transform="translate(736 688)" fill="none"/>
    <path id="Path_15" data-name="Path 15" d="M9.824,14.089l2.559,2.559,4.265-5.971m6.824,2.559a4.261,4.261,0,0,1-1.812,3.489,4.266,4.266,0,0,1-4.935,4.935,4.266,4.266,0,0,1-6.979,0,4.266,4.266,0,0,1-4.935-4.935,4.266,4.266,0,0,1,0-6.979A4.266,4.266,0,0,1,9.747,4.812a4.266,4.266,0,0,1,6.979,0,4.266,4.266,0,0,1,4.935,4.935,4.259,4.259,0,0,1,1.812,3.489Z" transform="translate(734.764 686.764)" fill="rgba(0,0,0,0)" stroke="#dbdbdb" stroke-linecap="round" stroke-linejoin="round" stroke-width="1.5"/>
  </g>
</svg>
