<svg xmlns="http://www.w3.org/2000/svg" width="693" height="451" viewBox="0 0 693 451">
  <g id="WP" transform="translate(-935.786 -277)">
    <g id="Rectangle_1" data-name="Rectangle 1" transform="translate(935.786 277)" fill="#161616" stroke="#393939" stroke-width="1">
      <rect width="693" height="451" rx="6" stroke="none"/>
      <rect x="0.5" y="0.5" width="692" height="450" rx="5.5" fill="none"/>
    </g>
    <g id="Group_2" data-name="Group 2" transform="translate(948.048 286.639)">
      <rect id="Rectangle_2" data-name="Rectangle 2" width="669" height="35" rx="4" transform="translate(-0.262 0.361)" fill="#414141"/>
      <circle id="Ellipse_1" data-name="Ellipse 1" cx="8" cy="8" r="8" transform="translate(6.738 9.361)" fill="#2f9e44"/>
      <circle id="Ellipse_2" data-name="Ellipse 2" cx="8" cy="8" r="8" transform="translate(28.738 9.361)" fill="#f08c00"/>
      <circle id="Ellipse_3" data-name="Ellipse 3" cx="8" cy="8" r="8" transform="translate(50.738 9.361)" fill="#e03131"/>
      <text id="WordPress" transform="translate(568.738 23.361)" fill="#b1b1b1" font-size="18" font-family="SegoeUI-Semibold, Segoe UI" font-weight="600"><tspan x="0" y="0">WordPress</tspan></text>
    </g>
    <g id="WP-logo" transform="translate(1189.768 408.63)">
      <path id="Path_1" data-name="Path 1" d="M8.708,72.209A79.471,79.471,0,0,0,53.489,143.72L15.587,39.872A79.155,79.155,0,0,0,8.708,72.209Z" transform="translate(4.458 20.411)" fill="#464342"/>
      <path id="Path_2" data-name="Path 2" d="M137.38,84.153c0-9.82-3.527-16.621-6.553-21.914-4.028-6.545-7.8-12.088-7.8-18.633,0-7.3,5.54-14.1,13.343-14.1.352,0,.686.044,1.03.064A79.44,79.44,0,0,0,17.352,44.522c1.864.056,3.621.1,5.113.1,8.311,0,21.176-1.008,21.176-1.008,4.283-.252,4.788,6.039.51,6.545,0,0-4.3.506-9.094.757l28.935,86.066L81.38,84.827,69,50.909c-4.279-.251-8.332-.757-8.332-.757-4.282-.251-3.78-6.8.5-6.545,0,0,13.122,1.008,20.929,1.008,8.31,0,21.176-1.008,21.176-1.008,4.286-.252,4.79,6.039.51,6.545,0,0-4.313.506-9.094.757l28.714,85.414,7.925-26.484c3.435-10.99,6.049-18.884,6.049-25.686Z" transform="translate(8.883 4.458)" fill="#464342"/>
      <path id="Path_3" data-name="Path 3" d="M70.256,65.857l-23.84,69.275a79.495,79.495,0,0,0,48.832-1.267,6.98,6.98,0,0,1-.565-1.095Z" transform="translate(23.761 33.713)" fill="#464342"/>
      <path id="Path_4" data-name="Path 4" d="M117.458,36.046a60.965,60.965,0,0,1,.535,8.17c0,8.063-1.506,17.127-6.042,28.46L87.681,142.849a79.471,79.471,0,0,0,29.777-106.8Z" transform="translate(44.886 18.453)" fill="#464342"/>
      <path id="Path_5" data-name="Path 5" d="M92.623,0a92.622,92.622,0,1,0,92.628,92.62A92.727,92.727,0,0,0,92.623,0Zm0,181A88.376,88.376,0,1,1,180.995,92.62,88.479,88.479,0,0,1,92.623,181Z" transform="translate(0 0)" fill="#464342"/>
    </g>
    <path id="Path_6" data-name="Path 6" d="M0,0,35.888,24.285l253.3,171.408,31.3,21.179" transform="translate(1122.149 386.039)" fill="none" stroke="#e03131" stroke-linecap="round" stroke-width="8"/>
  </g>
</svg>
